<?xml version="1.0" encoding="utf-8"?>
<!-- Generator: Adobe Illustrator 22.1.0, SVG Export Plug-In . SVG Version: 6.00 Build 0)  -->
<svg version="1.1" id="Layer_1" xmlns="http://www.w3.org/2000/svg" xmlns:xlink="http://www.w3.org/1999/xlink" x="0px" y="0px"
	 viewBox="0 0 288 216" style="enable-background:new 0 0 288 216;" xml:space="preserve">
<style type="text/css">
	.st0{fill:#FFFFFF;}
	.st1{fill:#ED1C24;}
	.st2{fill:#BE1E2D;}
</style>
<rect class="st0" width="288" height="216"/>
<g>
	<g>
		<path class="st1" d="M114.9,113.4c0-8.4,0-16.2,0-24.5c19.2-11.1,38.6-22.3,58.3-33.7c0,4,0,7.3,0,10.7
			c-16.3,9.4-32.6,18.9-48.9,28.3c0,4.7,0,9.2,0,13.8c3.8,2.2,7.6,4.4,11.5,6.7c9.4-5.4,18.8-10.9,28.1-16.2c0-2.6,0-5,0-8.1
			c-9.6,5.5-18.8,10.8-28.1,16.1c-1.6-0.9-3-1.7-4.6-2.6c0-1.7,0-3.4,0-5.5c13.6-7.9,27.5-15.9,41.8-24.1c0,10.2,0,19.8,0,29.7
			c-12.3,7.1-24.7,14.3-37.3,21.5C128.9,121.5,121.9,117.5,114.9,113.4z"/>
	</g>
	<g>
		<path class="st2" d="M97,135.3H86.7v9H97v-3.2h-5.4v-2.4h8.6v4.9c0,1.3-0.2,2.2-0.7,2.7c-0.5,0.5-1.4,0.7-2.8,0.7h-9.8
			c-1.4,0-2.3-0.2-2.8-0.7c-0.5-0.5-0.7-1.4-0.7-2.7v-7.5c0-1.3,0.2-2.2,0.7-2.7c0.5-0.5,1.4-0.7,2.8-0.7h9.8c1.4,0,2.3,0.2,2.8,0.7
			c0.5,0.5,0.7,1.3,0.7,2.5v0.3l-3.2,0.6V135.3z"/>
		<path class="st2" d="M104,146.9l8-14.2h3.2l8.2,14.2h-3.7l-1.7-3.1h-9l-1.7,3.1H104z M110.4,141.3h6.2l-3.1-5.8L110.4,141.3z"/>
		<path class="st2" d="M128,146.9v-14.2h2.7l6.7,8.6l6.6-8.6h2.7v14.2h-3.1v-8.8c0-0.2,0-0.4,0-0.6c0-0.3,0.1-0.6,0.1-0.9
			c-0.2,0.4-0.3,0.7-0.5,0.9c-0.1,0.2-0.3,0.4-0.4,0.6l-5.3,7.1h-0.7l-5.4-7.1c-0.2-0.3-0.4-0.5-0.5-0.8c-0.1-0.2-0.3-0.5-0.3-0.7
			c0,0.3,0,0.6,0.1,0.8c0,0.2,0,0.5,0,0.7v8.8H128z"/>
		<path class="st2" d="M153.5,146.9v-14.2h3.3v14.2H153.5z"/>
		<path class="st2" d="M164.1,146.9v-14.2h2.3l10,8.4c0.3,0.3,0.6,0.5,0.9,0.8c0.3,0.2,0.5,0.5,0.7,0.8c-0.1-0.8-0.1-1.4-0.1-1.7
			c0-0.3,0-0.6,0-0.8v-7.5h3v14.2h-2.3l-10.4-8.8c-0.3-0.2-0.5-0.4-0.7-0.6s-0.4-0.4-0.5-0.6c0,0.4,0.1,0.9,0.1,1.2c0,0.4,0,0.7,0,1
			v7.7H164.1z"/>
		<path class="st2" d="M201.4,135.3h-10.3v9h10.3v-3.2H196v-2.4h8.6v4.9c0,1.3-0.2,2.2-0.7,2.7c-0.5,0.5-1.4,0.7-2.8,0.7h-9.8
			c-1.4,0-2.3-0.2-2.8-0.7c-0.5-0.5-0.7-1.4-0.7-2.7v-7.5c0-1.3,0.2-2.2,0.7-2.7c0.5-0.5,1.4-0.7,2.8-0.7h9.8c1.4,0,2.3,0.2,2.8,0.7
			c0.5,0.5,0.7,1.3,0.7,2.5v0.3l-3.2,0.6V135.3z"/>
	</g>
	<g>
		<g>
			<path d="M124.7,160.7V154h1.6v5.5h5.1v1.3H124.7z"/>
			<path d="M133.3,155.6c0-0.6,0.1-1,0.3-1.3s0.7-0.3,1.3-0.3h5c0.7,0,1.1,0.1,1.3,0.3s0.3,0.6,0.3,1.3v3.6c0,0.6-0.1,1-0.3,1.3
				c-0.2,0.2-0.7,0.3-1.3,0.3h-5c-0.7,0-1.1-0.1-1.3-0.3c-0.2-0.2-0.3-0.6-0.3-1.3V155.6z M134.9,159.5h5.2v-4.3h-5.2V159.5z"/>
			<path d="M151.3,155.2h-4.9v4.3h4.9V158h-2.6v-1.2h4.1v2.3c0,0.6-0.1,1-0.3,1.3c-0.2,0.2-0.7,0.3-1.3,0.3h-4.7
				c-0.7,0-1.1-0.1-1.3-0.3c-0.2-0.2-0.3-0.6-0.3-1.3v-3.6c0-0.6,0.1-1,0.3-1.3c0.2-0.2,0.7-0.3,1.3-0.3h4.7c0.6,0,1.1,0.1,1.3,0.3
				c0.2,0.2,0.4,0.6,0.4,1.2v0.2l-1.5,0.3V155.2z"/>
			<path d="M156,155.6c0-0.6,0.1-1,0.3-1.3s0.7-0.3,1.3-0.3h5c0.7,0,1.1,0.1,1.3,0.3s0.3,0.6,0.3,1.3v3.6c0,0.6-0.1,1-0.3,1.3
				c-0.2,0.2-0.7,0.3-1.3,0.3h-5c-0.7,0-1.1-0.1-1.3-0.3c-0.2-0.2-0.3-0.6-0.3-1.3V155.6z M157.6,159.5h5.2v-4.3h-5.2V159.5z"/>
		</g>
		<g>
			<rect x="169" y="157.1" class="st1" width="22.4" height="1.3"/>
		</g>
		<g>
			<rect x="96.6" y="157.1" class="st1" width="22.4" height="1.3"/>
		</g>
	</g>
</g>
</svg>
